<mxfile host="app.diagrams.net" modified="2021-04-21T11:05:25.098Z" agent="5.0 (Windows NT 10.0; Win64; x64) AppleWebKit/537.36 (KHTML, like Gecko) Chrome/89.0.4389.128 Safari/537.36" etag="hLk8yydlXIzaVGt4w0z1" version="14.6.1" type="github">
  <diagram id="SuNVphhk_r-dVFvO_X8W" name="Page-1">
    <mxGraphModel dx="1422" dy="776" grid="1" gridSize="10" guides="1" tooltips="1" connect="1" arrows="1" fold="1" page="1" pageScale="1" pageWidth="827" pageHeight="1169" math="1" shadow="0">
      <root>
        <mxCell id="0" />
        <mxCell id="1" parent="0" />
        <mxCell id="hj8D2mjoaMXsEgfOs6C1-12" value="" style="rounded=0;whiteSpace=wrap;html=1;fontFamily=Georgia;fontSize=16;fillColor=none;" parent="1" vertex="1">
          <mxGeometry x="250" y="105" width="120" height="305" as="geometry" />
        </mxCell>
        <mxCell id="hj8D2mjoaMXsEgfOs6C1-46" value="" style="rounded=0;whiteSpace=wrap;html=1;fontFamily=Noto Sans;fontSource=https%3A%2F%2Ffonts.googleapis.com%2Fcss%3Ffamily%3DNoto%2BSans;fontSize=16;fillColor=#ffffff;align=left;strokeWidth=3;" parent="1" vertex="1">
          <mxGeometry x="10" y="1060" width="160" height="100" as="geometry" />
        </mxCell>
        <mxCell id="-FZ3qA6GbJ0KDv9lzx8t-1" value="Integration" style="text;html=1;strokeColor=none;fillColor=none;align=left;verticalAlign=middle;whiteSpace=wrap;rounded=0;fontFamily=Noto Sans;fontSource=https%3A%2F%2Ffonts.googleapis.com%2Fcss%3Ffamily%3DNoto%2BSans;fontStyle=1;fontSize=48;" parent="1" vertex="1">
          <mxGeometry x="40" y="54" width="560" height="20" as="geometry" />
        </mxCell>
        <mxCell id="-FZ3qA6GbJ0KDv9lzx8t-2" value="" style="endArrow=none;html=1;fontSize=48;strokeWidth=9;" parent="1" edge="1">
          <mxGeometry width="50" height="50" relative="1" as="geometry">
            <mxPoint x="30" y="84" as="sourcePoint" />
            <mxPoint x="30" y="19" as="targetPoint" />
          </mxGeometry>
        </mxCell>
        <mxCell id="-FZ3qA6GbJ0KDv9lzx8t-3" value="" style="endArrow=none;html=1;fontSize=48;strokeWidth=1;" parent="1" edge="1">
          <mxGeometry width="50" height="50" relative="1" as="geometry">
            <mxPoint x="30" y="20" as="sourcePoint" />
            <mxPoint x="380" y="20" as="targetPoint" />
          </mxGeometry>
        </mxCell>
        <mxCell id="-FZ3qA6GbJ0KDv9lzx8t-14" style="edgeStyle=orthogonalEdgeStyle;rounded=0;orthogonalLoop=1;jettySize=auto;html=1;exitX=0.5;exitY=1;exitDx=0;exitDy=0;entryX=0.5;entryY=0;entryDx=0;entryDy=0;fontSize=16;strokeWidth=1;" parent="1" source="-FZ3qA6GbJ0KDv9lzx8t-4" target="-FZ3qA6GbJ0KDv9lzx8t-8" edge="1">
          <mxGeometry relative="1" as="geometry" />
        </mxCell>
        <mxCell id="-FZ3qA6GbJ0KDv9lzx8t-4" value="&lt;font face=&quot;Noto Sans&quot; style=&quot;font-size: 16px&quot;&gt;Add \(1\) to power&lt;/font&gt;" style="rounded=0;whiteSpace=wrap;html=1;fontSize=16;align=center;" parent="1" vertex="1">
          <mxGeometry x="40" y="180" width="150" height="30" as="geometry" />
        </mxCell>
        <mxCell id="-FZ3qA6GbJ0KDv9lzx8t-13" style="edgeStyle=orthogonalEdgeStyle;rounded=0;orthogonalLoop=1;jettySize=auto;html=1;exitX=0.5;exitY=1;exitDx=0;exitDy=0;entryX=0.5;entryY=0;entryDx=0;entryDy=0;fontSize=16;strokeWidth=1;" parent="1" source="-FZ3qA6GbJ0KDv9lzx8t-6" target="-FZ3qA6GbJ0KDv9lzx8t-4" edge="1">
          <mxGeometry relative="1" as="geometry" />
        </mxCell>
        <mxCell id="-FZ3qA6GbJ0KDv9lzx8t-6" value="To integrate" style="rounded=1;whiteSpace=wrap;html=1;fontSize=16;align=center;arcSize=50;" parent="1" vertex="1">
          <mxGeometry x="40" y="120" width="150" height="30" as="geometry" />
        </mxCell>
        <mxCell id="NSzI-JURLk4PuQN7T8RH-2" style="edgeStyle=orthogonalEdgeStyle;rounded=0;orthogonalLoop=1;jettySize=auto;html=1;exitX=0.5;exitY=1;exitDx=0;exitDy=0;entryX=0.5;entryY=0;entryDx=0;entryDy=0;" edge="1" parent="1" source="-FZ3qA6GbJ0KDv9lzx8t-8" target="NSzI-JURLk4PuQN7T8RH-1">
          <mxGeometry relative="1" as="geometry" />
        </mxCell>
        <mxCell id="-FZ3qA6GbJ0KDv9lzx8t-8" value="&lt;font face=&quot;Noto Sans&quot; style=&quot;font-size: 16px&quot;&gt;Divide by new power&lt;/font&gt;" style="rounded=0;whiteSpace=wrap;html=1;fontSize=16;align=center;" parent="1" vertex="1">
          <mxGeometry x="40" y="240" width="150" height="50" as="geometry" />
        </mxCell>
        <mxCell id="hj8D2mjoaMXsEgfOs6C1-1" value="&lt;font style=&quot;font-size: 16px&quot;&gt;End&lt;/font&gt;" style="rounded=1;whiteSpace=wrap;html=1;arcSize=50;" parent="1" vertex="1">
          <mxGeometry x="40" y="380" width="150" height="30" as="geometry" />
        </mxCell>
        <mxCell id="hj8D2mjoaMXsEgfOs6C1-3" value="$$\frac{x^3}{3}$$" style="text;html=1;strokeColor=none;fillColor=none;align=center;verticalAlign=middle;whiteSpace=wrap;rounded=0;fontFamily=Georgia;fontStyle=2;fontSize=16;" parent="1" vertex="1">
          <mxGeometry x="250" y="250" width="120" height="30" as="geometry" />
        </mxCell>
        <mxCell id="hj8D2mjoaMXsEgfOs6C1-4" value="$$\int{x^2}dx$$" style="text;html=1;strokeColor=none;fillColor=none;align=center;verticalAlign=middle;whiteSpace=wrap;rounded=0;fontFamily=Georgia;fontStyle=2;fontSize=16;" parent="1" vertex="1">
          <mxGeometry x="250" y="115" width="120" height="40" as="geometry" />
        </mxCell>
        <mxCell id="hj8D2mjoaMXsEgfOs6C1-6" value="$$x^3$$" style="text;html=1;strokeColor=none;fillColor=none;align=center;verticalAlign=middle;whiteSpace=wrap;rounded=0;fontFamily=Georgia;fontStyle=2;fontSize=16;" parent="1" vertex="1">
          <mxGeometry x="250" y="180" width="120" height="30" as="geometry" />
        </mxCell>
        <mxCell id="hj8D2mjoaMXsEgfOs6C1-13" value="Example" style="text;html=1;strokeColor=none;fillColor=none;align=center;verticalAlign=middle;whiteSpace=wrap;rounded=0;fontFamily=Noto Sans;fontSize=11;fontSource=https%3A%2F%2Ffonts.googleapis.com%2Fcss%3Ffamily%3DNoto%2BSans;horizontal=1;rotation=-90;" parent="1" vertex="1">
          <mxGeometry x="220" y="115" width="40" height="20" as="geometry" />
        </mxCell>
        <mxCell id="hj8D2mjoaMXsEgfOs6C1-14" value="&lt;b&gt;Integration &lt;/b&gt;is the inverse of differentiation" style="rounded=0;whiteSpace=wrap;html=1;fontFamily=Noto Sans;fontSource=https%3A%2F%2Ffonts.googleapis.com%2Fcss%3Ffamily%3DNoto%2BSans;fontSize=16;align=left;" parent="1" vertex="1">
          <mxGeometry x="414" y="20" width="386" height="30" as="geometry" />
        </mxCell>
        <mxCell id="hj8D2mjoaMXsEgfOs6C1-18" value="Algebraic functions w/ brackets and powers" style="text;html=1;strokeColor=none;fillColor=none;align=left;verticalAlign=middle;whiteSpace=wrap;rounded=0;fontFamily=Noto Sans;fontSource=https%3A%2F%2Ffonts.googleapis.com%2Fcss%3Ffamily%3DNoto%2BSans;fontSize=24;" parent="1" vertex="1">
          <mxGeometry x="400" y="210" width="410" height="20" as="geometry" />
        </mxCell>
        <mxCell id="hj8D2mjoaMXsEgfOs6C1-19" value="" style="endArrow=none;html=1;fontFamily=Noto Sans;fontSource=https%3A%2F%2Ffonts.googleapis.com%2Fcss%3Ffamily%3DNoto%2BSans;fontSize=28;strokeWidth=4;" parent="1" edge="1">
          <mxGeometry width="50" height="50" relative="1" as="geometry">
            <mxPoint x="389" y="190" as="sourcePoint" />
            <mxPoint x="820" y="190" as="targetPoint" />
          </mxGeometry>
        </mxCell>
        <mxCell id="hj8D2mjoaMXsEgfOs6C1-20" value="" style="endArrow=none;html=1;fontFamily=Noto Sans;fontSource=https%3A%2F%2Ffonts.googleapis.com%2Fcss%3Ffamily%3DNoto%2BSans;fontSize=28;strokeWidth=2;" parent="1" edge="1">
          <mxGeometry width="50" height="50" relative="1" as="geometry">
            <mxPoint x="390" y="600" as="sourcePoint" />
            <mxPoint x="390" y="190" as="targetPoint" />
          </mxGeometry>
        </mxCell>
        <mxCell id="hj8D2mjoaMXsEgfOs6C1-21" value="$$\int{(ax+b)^n}dx\rightarrow \frac{(ax+b)^{n+1}}{a(n+1)}+c$$" style="text;html=1;strokeColor=none;fillColor=none;align=left;verticalAlign=middle;whiteSpace=wrap;rounded=0;fontFamily=Noto Sans;fontSource=https%3A%2F%2Ffonts.googleapis.com%2Fcss%3Ffamily%3DNoto%2BSans;fontSize=16;" parent="1" vertex="1">
          <mxGeometry x="400" y="260" width="326" height="20" as="geometry" />
        </mxCell>
        <mxCell id="hj8D2mjoaMXsEgfOs6C1-30" style="edgeStyle=orthogonalEdgeStyle;rounded=0;orthogonalLoop=1;jettySize=auto;html=1;exitX=0.5;exitY=1;exitDx=0;exitDy=0;entryX=0.5;entryY=0;entryDx=0;entryDy=0;fontFamily=Noto Sans;fontSource=https%3A%2F%2Ffonts.googleapis.com%2Fcss%3Ffamily%3DNoto%2BSans;fontSize=16;strokeWidth=2;" parent="1" source="hj8D2mjoaMXsEgfOs6C1-24" target="hj8D2mjoaMXsEgfOs6C1-25" edge="1">
          <mxGeometry relative="1" as="geometry" />
        </mxCell>
        <mxCell id="hj8D2mjoaMXsEgfOs6C1-24" value="$$\int{(x+3)^3}dx$$" style="rounded=0;whiteSpace=wrap;html=1;fontFamily=Noto Sans;fontSource=https%3A%2F%2Ffonts.googleapis.com%2Fcss%3Ffamily%3DNoto%2BSans;fontSize=16;fillColor=#ffffff;align=center;" parent="1" vertex="1">
          <mxGeometry x="400" y="380" width="166" height="50" as="geometry" />
        </mxCell>
        <mxCell id="hj8D2mjoaMXsEgfOs6C1-31" style="edgeStyle=orthogonalEdgeStyle;rounded=0;orthogonalLoop=1;jettySize=auto;html=1;exitX=0.5;exitY=1;exitDx=0;exitDy=0;entryX=0.5;entryY=0;entryDx=0;entryDy=0;fontFamily=Noto Sans;fontSource=https%3A%2F%2Ffonts.googleapis.com%2Fcss%3Ffamily%3DNoto%2BSans;fontSize=16;strokeWidth=2;" parent="1" source="hj8D2mjoaMXsEgfOs6C1-25" target="hj8D2mjoaMXsEgfOs6C1-26" edge="1">
          <mxGeometry relative="1" as="geometry" />
        </mxCell>
        <mxCell id="hj8D2mjoaMXsEgfOs6C1-25" value="$$\frac{(x+3)^4}{1\times 4}+c$$" style="rounded=0;whiteSpace=wrap;html=1;fontFamily=Noto Sans;fontSource=https%3A%2F%2Ffonts.googleapis.com%2Fcss%3Ffamily%3DNoto%2BSans;fontSize=16;fillColor=#ffffff;align=center;" parent="1" vertex="1">
          <mxGeometry x="400" y="450" width="166" height="60" as="geometry" />
        </mxCell>
        <mxCell id="hj8D2mjoaMXsEgfOs6C1-26" value="$$=\frac{(x+3)^4}{4}+c$$" style="rounded=0;whiteSpace=wrap;html=1;fontFamily=Noto Sans;fontSource=https%3A%2F%2Ffonts.googleapis.com%2Fcss%3Ffamily%3DNoto%2BSans;fontSize=16;fillColor=#ffffff;align=center;" parent="1" vertex="1">
          <mxGeometry x="400" y="530" width="166" height="70" as="geometry" />
        </mxCell>
        <mxCell id="hj8D2mjoaMXsEgfOs6C1-41" value="" style="endArrow=none;html=1;fontFamily=Noto Sans;fontSource=https%3A%2F%2Ffonts.googleapis.com%2Fcss%3Ffamily%3DNoto%2BSans;fontSize=28;strokeWidth=4;" parent="1" edge="1">
          <mxGeometry width="50" height="50" relative="1" as="geometry">
            <mxPoint x="10" y="430" as="sourcePoint" />
            <mxPoint x="380" y="430" as="targetPoint" />
          </mxGeometry>
        </mxCell>
        <mxCell id="hj8D2mjoaMXsEgfOs6C1-42" value="Integrating trig functions w/ brackets and powers" style="text;html=1;strokeColor=none;fillColor=none;align=left;verticalAlign=middle;whiteSpace=wrap;rounded=0;fontFamily=Noto Sans;fontSource=https%3A%2F%2Ffonts.googleapis.com%2Fcss%3Ffamily%3DNoto%2BSans;fontSize=24;" parent="1" vertex="1">
          <mxGeometry x="22" y="450" width="360" height="20" as="geometry" />
        </mxCell>
        <mxCell id="hj8D2mjoaMXsEgfOs6C1-43" value="" style="endArrow=none;html=1;fontFamily=Noto Sans;fontSource=https%3A%2F%2Ffonts.googleapis.com%2Fcss%3Ffamily%3DNoto%2BSans;fontSize=16;strokeWidth=2;" parent="1" edge="1">
          <mxGeometry width="50" height="50" relative="1" as="geometry">
            <mxPoint x="11" y="840" as="sourcePoint" />
            <mxPoint x="11" y="430" as="targetPoint" />
          </mxGeometry>
        </mxCell>
        <mxCell id="hj8D2mjoaMXsEgfOs6C1-47" value="practice questions, videos, ..." style="text;html=1;strokeColor=none;fillColor=none;align=center;verticalAlign=middle;whiteSpace=wrap;rounded=0;fontFamily=Noto Sans;fontSource=https%3A%2F%2Ffonts.googleapis.com%2Fcss%3Ffamily%3DNoto%2BSans;fontSize=16;rotation=-90;" parent="1" vertex="1">
          <mxGeometry x="10" y="1101.5" width="70" height="20" as="geometry" />
        </mxCell>
        <mxCell id="hj8D2mjoaMXsEgfOs6C1-48" value="" style="endArrow=none;html=1;fontFamily=Noto Sans;fontSource=https%3A%2F%2Ffonts.googleapis.com%2Fcss%3Ffamily%3DNoto%2BSans;fontSize=28;strokeWidth=4;" parent="1" edge="1">
          <mxGeometry width="50" height="50" relative="1" as="geometry">
            <mxPoint x="419" y="615" as="sourcePoint" />
            <mxPoint x="820" y="615" as="targetPoint" />
          </mxGeometry>
        </mxCell>
        <mxCell id="hj8D2mjoaMXsEgfOs6C1-49" value="" style="endArrow=none;html=1;fontFamily=Noto Sans;fontSource=https%3A%2F%2Ffonts.googleapis.com%2Fcss%3Ffamily%3DNoto%2BSans;fontSize=16;strokeWidth=2;" parent="1" edge="1">
          <mxGeometry width="50" height="50" relative="1" as="geometry">
            <mxPoint x="420" y="1090" as="sourcePoint" />
            <mxPoint x="420.08" y="616.5" as="targetPoint" />
          </mxGeometry>
        </mxCell>
        <mxCell id="hj8D2mjoaMXsEgfOs6C1-50" value="Differential Equations" style="text;html=1;strokeColor=none;fillColor=none;align=left;verticalAlign=middle;whiteSpace=wrap;rounded=0;fontFamily=Noto Sans;fontSource=https%3A%2F%2Ffonts.googleapis.com%2Fcss%3Ffamily%3DNoto%2BSans;fontSize=28;" parent="1" vertex="1">
          <mxGeometry x="430" y="625" width="290" height="20" as="geometry" />
        </mxCell>
        <mxCell id="hj8D2mjoaMXsEgfOs6C1-51" value="When integrating simple expressions, \(+c\) is unknown. \(c\) can be calculated with additional information" style="text;html=1;strokeColor=none;fillColor=none;align=left;verticalAlign=middle;whiteSpace=wrap;rounded=0;fontFamily=Noto Sans;fontSource=https%3A%2F%2Ffonts.googleapis.com%2Fcss%3Ffamily%3DNoto%2BSans;fontSize=16;" parent="1" vertex="1">
          <mxGeometry x="430" y="655" width="340" height="60" as="geometry" />
        </mxCell>
        <mxCell id="hj8D2mjoaMXsEgfOs6C1-55" value="" style="shape=image;verticalLabelPosition=bottom;labelBackgroundColor=#ffffff;verticalAlign=top;aspect=fixed;imageAspect=0;image=data:image/svg+xml,PHN2ZyB4bWxucz0iaHR0cDovL3d3dy53My5vcmcvMjAwMC9zdmciIHhtbG5zOnhsaW5rPSJodHRwOi8vd3d3LnczLm9yZy8xOTk5L3hsaW5rIiB2ZXJzaW9uPSIxLjAiIGlkPSJMYXllcl8xIiB4PSIwcHgiIHk9IjBweCIgd2lkdGg9IjYzLjk5OTAwODE3ODcxMDk0IiBoZWlnaHQ9IjYzLjk5OTAwMDU0OTMxNjQwNiIgdmlld0JveD0iNS41IC0zLjUgNjMuOTk5MDA4MTc4NzEwOTQgNjMuOTk5MDAwNTQ5MzE2NDA2IiBlbmFibGUtYmFja2dyb3VuZD0ibmV3IDUuNSAtMy41IDY0IDY0IiB4bWw6c3BhY2U9InByZXNlcnZlIj4mI3hhOzxnPiYjeGE7CTxjaXJjbGUgZmlsbD0iI0ZGRkZGRiIgY3g9IjM3Ljc4NSIgY3k9IjI4LjUwMSIgcj0iMjguODM2Ii8+JiN4YTsJPHBhdGggZD0iTTM3LjQ0MS0zLjVjOC45NTEsMCwxNi41NzIsMy4xMjUsMjIuODU3LDkuMzcyYzMuMDA4LDMuMDA5LDUuMjk1LDYuNDQ4LDYuODU3LDEwLjMxNCYjMTA7JiM5OyYjOTtjMS41NjEsMy44NjcsMi4zNDQsNy45NzEsMi4zNDQsMTIuMzE0YzAsNC4zODEtMC43NzMsOC40ODYtMi4zMTQsMTIuMzEzYy0xLjU0MywzLjgyOC0zLjgyLDcuMjEtNi44MjgsMTAuMTQzJiMxMDsmIzk7JiM5O2MtMy4xMjMsMy4wODUtNi42NjYsNS40NDgtMTAuNjI5LDcuMDg2Yy0zLjk2MSwxLjYzOC04LjA1NywyLjQ1Ny0xMi4yODUsMi40NTdzLTguMjc2LTAuODA4LTEyLjE0My0yLjQyOSYjMTA7JiM5OyYjOTtjLTMuODY2LTEuNjE4LTcuMzMzLTMuOTYxLTEwLjQtNy4wMjdjLTMuMDY3LTMuMDY2LTUuNC02LjUyNC03LTEwLjM3MlM1LjUsMzIuNzY3LDUuNSwyOC41YzAtNC4yMjksMC44MDktOC4yOTUsMi40MjgtMTIuMiYjMTA7JiM5OyYjOTtjMS42MTktMy45MDUsMy45NzItNy40LDcuMDU3LTEwLjQ4NkMyMS4wOC0wLjM5NCwyOC41NjUtMy41LDM3LjQ0MS0zLjV6IE0zNy41NTcsMi4yNzJjLTcuMzE0LDAtMTMuNDY3LDIuNTUzLTE4LjQ1OCw3LjY1NyYjMTA7JiM5OyYjOTtjLTIuNTE1LDIuNTUzLTQuNDQ4LDUuNDE5LTUuOCw4LjZjLTEuMzU0LDMuMTgxLTIuMDI5LDYuNTA1LTIuMDI5LDkuOTcyYzAsMy40MjksMC42NzUsNi43MzQsMi4wMjksOS45MTMmIzEwOyYjOTsmIzk7YzEuMzUzLDMuMTgzLDMuMjg1LDYuMDIxLDUuOCw4LjUxNmMyLjUxNCwyLjQ5Niw1LjM1MSw0LjM5OSw4LjUxNSw1LjcxNWMzLjE2MSwxLjMxNCw2LjQ3NiwxLjk3MSw5Ljk0MywxLjk3MSYjMTA7JiM5OyYjOTtjMy40MjgsMCw2Ljc1LTAuNjY1LDkuOTczLTEuOTk5YzMuMjE5LTEuMzM1LDYuMTIxLTMuMjU3LDguNzEzLTUuNzcxYzQuOTktNC44NzYsNy40ODQtMTAuOTksNy40ODQtMTguMzQ0JiMxMDsmIzk7JiM5O2MwLTMuNTQzLTAuNjQ4LTYuODk1LTEuOTQzLTEwLjA1N2MtMS4yOTMtMy4xNjItMy4xOC01Ljk4LTUuNjU0LTguNDU4QzUwLjk4NCw0Ljg0NCw0NC43OTUsMi4yNzIsMzcuNTU3LDIuMjcyeiBNMzcuMTU2LDIzLjE4NyYjMTA7JiM5OyYjOTtsLTQuMjg3LDIuMjI5Yy0wLjQ1OC0wLjk1MS0xLjAxOS0xLjYxOS0xLjY4NS0yYy0wLjY2Ny0wLjM4LTEuMjg2LTAuNTcxLTEuODU4LTAuNTcxYy0yLjg1NiwwLTQuMjg2LDEuODg1LTQuMjg2LDUuNjU3JiMxMDsmIzk7JiM5O2MwLDEuNzE0LDAuMzYyLDMuMDg0LDEuMDg1LDQuMTEzYzAuNzI0LDEuMDI5LDEuNzkxLDEuNTQ0LDMuMjAxLDEuNTQ0YzEuODY3LDAsMy4xODEtMC45MTUsMy45NDQtMi43NDNsMy45NDIsMiYjMTA7JiM5OyYjOTtjLTAuODM4LDEuNTYzLTIsMi43OTEtMy40ODYsMy42ODZjLTEuNDg0LDAuODk2LTMuMTIzLDEuMzQzLTQuOTE0LDEuMzQzYy0yLjg1NywwLTUuMTYzLTAuODc1LTYuOTE1LTIuNjI5JiMxMDsmIzk7JiM5O2MtMS43NTItMS43NTItMi42MjgtNC4xOS0yLjYyOC03LjMxM2MwLTMuMDQ4LDAuODg2LTUuNDY2LDIuNjU3LTcuMjU3YzEuNzcxLTEuNzksNC4wMDktMi42ODYsNi43MTUtMi42ODYmIzEwOyYjOTsmIzk7QzMyLjYwNCwxOC41NTgsMzUuNDQxLDIwLjEwMSwzNy4xNTYsMjMuMTg3eiBNNTUuNjEzLDIzLjE4N2wtNC4yMjksMi4yMjljLTAuNDU3LTAuOTUxLTEuMDItMS42MTktMS42ODYtMiYjMTA7JiM5OyYjOTtjLTAuNjY4LTAuMzgtMS4zMDctMC41NzEtMS45MTQtMC41NzFjLTIuODU3LDAtNC4yODcsMS44ODUtNC4yODcsNS42NTdjMCwxLjcxNCwwLjM2MywzLjA4NCwxLjA4Niw0LjExMyYjMTA7JiM5OyYjOTtjMC43MjMsMS4wMjksMS43ODksMS41NDQsMy4yMDEsMS41NDRjMS44NjUsMCwzLjE4LTAuOTE1LDMuOTQxLTIuNzQzbDQsMmMtMC44NzUsMS41NjMtMi4wNTcsMi43OTEtMy41NDEsMy42ODYmIzEwOyYjOTsmIzk7Yy0xLjQ4NiwwLjg5Ni0zLjEwNSwxLjM0My00Ljg1NywxLjM0M2MtMi44OTYsMC01LjIwOS0wLjg3NS02Ljk0MS0yLjYyOWMtMS43MzYtMS43NTItMi42MDItNC4xOS0yLjYwMi03LjMxMyYjMTA7JiM5OyYjOTtjMC0zLjA0OCwwLjg4NS01LjQ2NiwyLjY1OC03LjI1N2MxLjc3LTEuNzksNC4wMDgtMi42ODYsNi43MTMtMi42ODZDNTEuMTE3LDE4LjU1OCw1My45MzgsMjAuMTAxLDU1LjYxMywyMy4xODd6Ii8+JiN4YTs8L2c+JiN4YTs8L3N2Zz4=;" parent="1" vertex="1">
          <mxGeometry x="180" y="1110" width="44" height="44" as="geometry" />
        </mxCell>
        <mxCell id="hj8D2mjoaMXsEgfOs6C1-56" value="" style="shape=image;verticalLabelPosition=bottom;labelBackgroundColor=#ffffff;verticalAlign=top;aspect=fixed;imageAspect=0;image=data:image/svg+xml,PHN2ZyB4bWxucz0iaHR0cDovL3d3dy53My5vcmcvMjAwMC9zdmciIHhtbG5zOnhsaW5rPSJodHRwOi8vd3d3LnczLm9yZy8xOTk5L3hsaW5rIiB2ZXJzaW9uPSIxLjAiIGlkPSJMYXllcl8xIiB4PSIwcHgiIHk9IjBweCIgd2lkdGg9IjY0IiBoZWlnaHQ9IjY0IiB2aWV3Qm94PSI1LjUgLTMuNSA2NCA2NCIgZW5hYmxlLWJhY2tncm91bmQ9Im5ldyA1LjUgLTMuNSA2NCA2NCIgeG1sOnNwYWNlPSJwcmVzZXJ2ZSI+JiN4YTs8Zz4mI3hhOwk8Y2lyY2xlIGZpbGw9IiNGRkZGRkYiIGN4PSIzNy42MzciIGN5PSIyOC44MDYiIHI9IjI4LjI3NiIvPiYjeGE7CTxnPiYjeGE7CQk8cGF0aCBkPSJNMzcuNDQzLTMuNWM4Ljk4OCwwLDE2LjU3LDMuMDg1LDIyLjc0Miw5LjI1N0M2Ni4zOTMsMTEuOTY3LDY5LjUsMTkuNTQ4LDY5LjUsMjguNWMwLDguOTkxLTMuMDQ5LDE2LjQ3Ni05LjE0NSwyMi40NTYmIzEwOyYjOTsmIzk7JiM5O0M1My44NzksNTcuMzE5LDQ2LjI0Miw2MC41LDM3LjQ0Myw2MC41Yy04LjY0OSwwLTE2LjE1My0zLjE0NC0yMi41MTQtOS40M0M4LjY0NCw0NC43ODQsNS41LDM3LjI2Miw1LjUsMjguNSYjMTA7JiM5OyYjOTsmIzk7YzAtOC43NjEsMy4xNDQtMTYuMzQyLDkuNDI5LTIyLjc0MkMyMS4xMDEtMC40MTUsMjguNjA0LTMuNSwzNy40NDMtMy41eiBNMzcuNTU3LDIuMjcyYy03LjI3NiwwLTEzLjQyOCwyLjU1My0xOC40NTcsNy42NTcmIzEwOyYjOTsmIzk7JiM5O2MtNS4yMiw1LjMzNC03LjgyOSwxMS41MjUtNy44MjksMTguNTcyYzAsNy4wODYsMi41OSwxMy4yMiw3Ljc3LDE4LjM5OGM1LjE4MSw1LjE4MiwxMS4zNTIsNy43NzEsMTguNTE0LDcuNzcxJiMxMDsmIzk7JiM5OyYjOTtjNy4xMjMsMCwxMy4zMzQtMi42MDcsMTguNjI5LTcuODI4YzUuMDI5LTQuODM4LDcuNTQzLTEwLjk1Miw3LjU0My0xOC4zNDNjMC03LjI3Ni0yLjU1My0xMy40NjUtNy42NTYtMTguNTcxJiMxMDsmIzk7JiM5OyYjOTtDNTAuOTY3LDQuODI0LDQ0Ljc5NSwyLjI3MiwzNy41NTcsMi4yNzJ6IE00Ni4xMjksMjAuNTU3djEzLjA4NWgtMy42NTZ2MTUuNTQyaC05Ljk0NFYzMy42NDNoLTMuNjU2VjIwLjU1NyYjMTA7JiM5OyYjOTsmIzk7YzAtMC41NzIsMC4yLTEuMDU3LDAuNTk5LTEuNDU3YzAuNDAxLTAuMzk5LDAuODg3LTAuNiwxLjQ1Ny0wLjZoMTMuMTQ0YzAuNTMzLDAsMS4wMSwwLjIsMS40MjgsMC42JiMxMDsmIzk7JiM5OyYjOTtDNDUuOTE4LDE5LjUsNDYuMTI5LDE5Ljk4Niw0Ni4xMjksMjAuNTU3eiBNMzMuMDQyLDEyLjMyOWMwLTMuMDA4LDEuNDg1LTQuNTE0LDQuNDU4LTQuNTE0czQuNDU3LDEuNTA0LDQuNDU3LDQuNTE0JiMxMDsmIzk7JiM5OyYjOTtjMCwyLjk3MS0xLjQ4Niw0LjQ1Ny00LjQ1Nyw0LjQ1N1MzMy4wNDIsMTUuMywzMy4wNDIsMTIuMzI5eiIvPiYjeGE7CTwvZz4mI3hhOzwvZz4mI3hhOzwvc3ZnPg==;" parent="1" vertex="1">
          <mxGeometry x="230" y="1110" width="44" height="44" as="geometry" />
        </mxCell>
        <mxCell id="hj8D2mjoaMXsEgfOs6C1-57" value="" style="shape=image;verticalLabelPosition=bottom;labelBackgroundColor=#ffffff;verticalAlign=top;aspect=fixed;imageAspect=0;image=data:image/svg+xml,PHN2ZyB4bWxucz0iaHR0cDovL3d3dy53My5vcmcvMjAwMC9zdmciIHhtbG5zOnhsaW5rPSJodHRwOi8vd3d3LnczLm9yZy8xOTk5L3hsaW5rIiB2ZXJzaW9uPSIxLjAiIGlkPSJMYXllcl8xIiB4PSIwcHgiIHk9IjBweCIgd2lkdGg9IjY0IiBoZWlnaHQ9IjY0IiB2aWV3Qm94PSI1LjUgLTMuNSA2NCA2NCIgZW5hYmxlLWJhY2tncm91bmQ9Im5ldyA1LjUgLTMuNSA2NCA2NCIgeG1sOnNwYWNlPSJwcmVzZXJ2ZSI+JiN4YTs8Zz4mI3hhOwk8Y2lyY2xlIGZpbGw9IiNGRkZGRkYiIGN4PSIzNi45NDQiIGN5PSIyOC42MzEiIHI9IjI5LjEwNSIvPiYjeGE7CTxnPiYjeGE7CQk8cGF0aCBkPSJNMzcuNDQzLTMuNWM4Ljk1MSwwLDE2LjUzMSwzLjEwNSwyMi43NDIsOS4zMTVDNjYuMzkzLDExLjk4Nyw2OS41LDE5LjU0OCw2OS41LDI4LjVjMCw4Ljk1NC0zLjA0OSwxNi40NTctOS4xNDUsMjIuNTE0JiMxMDsmIzk7JiM5OyYjOTtDNTMuOTE4LDU3LjMzOCw0Ni4yNzksNjAuNSwzNy40NDMsNjAuNWMtOC42NDksMC0xNi4xNTMtMy4xNDMtMjIuNTE0LTkuNDI5QzguNjQ0LDQ0Ljc4Niw1LjUsMzcuMjY0LDUuNSwyOC41MDEmIzEwOyYjOTsmIzk7JiM5O2MwLTguNzIzLDMuMTQ0LTE2LjI4NSw5LjQyOS0yMi42ODVDMjEuMTM4LTAuMzk1LDI4LjY0My0zLjUsMzcuNDQzLTMuNXogTTM3LjU1NywyLjI3MmMtNy4yNzYsMC0xMy40MjgsMi41NzItMTguNDU3LDcuNzE1JiMxMDsmIzk7JiM5OyYjOTtjLTUuMjIsNS4yOTYtNy44MjksMTEuNDY3LTcuODI5LDE4LjUxM2MwLDcuMTI1LDIuNTksMTMuMjU3LDcuNzcsMTguNGM1LjE4MSw1LjE4MiwxMS4zNTIsNy43NzEsMTguNTE0LDcuNzcxJiMxMDsmIzk7JiM5OyYjOTtjNy4xMjMsMCwxMy4zMzQtMi42MDksMTguNjI5LTcuODI4YzUuMDI5LTQuODc2LDcuNTQzLTEwLjk5LDcuNTQzLTE4LjM0M2MwLTcuMzEzLTIuNTUzLTEzLjQ4NS03LjY1Ni0xOC41MTMmIzEwOyYjOTsmIzk7JiM5O0M1MS4wMDQsNC44NDIsNDQuODMyLDIuMjcyLDM3LjU1NywyLjI3MnogTTIzLjI3MSwyMy45ODVjMC42MDktMy45MjQsMi4xODktNi45NjIsNC43NDItOS4xMTQmIzEwOyYjOTsmIzk7JiM5O2MyLjU1Mi0yLjE1Miw1LjY1Ni0zLjIyOCw5LjMxNC0zLjIyOGM1LjAyNywwLDkuMDI5LDEuNjIsMTIsNC44NTZjMi45NzEsMy4yMzgsNC40NTcsNy4zOTEsNC40NTcsMTIuNDU3JiMxMDsmIzk7JiM5OyYjOTtjMCw0LjkxNS0xLjU0Myw5LTQuNjI3LDEyLjI1NmMtMy4wODgsMy4yNTYtNy4wODYsNC44ODYtMTIuMDAyLDQuODg2Yy0zLjYxOSwwLTYuNzQzLTEuMDg1LTkuMzcxLTMuMjU3JiMxMDsmIzk7JiM5OyYjOTtjLTIuNjI5LTIuMTcyLTQuMjA5LTUuMjU3LTQuNzQzLTkuMjU3SDMxLjFjMC4xOSwzLjg4NiwyLjUzMyw1LjgyOSw3LjAyOSw1LjgyOWMyLjI0NiwwLDQuMDU3LTAuOTcyLDUuNDI4LTIuOTE0JiMxMDsmIzk7JiM5OyYjOTtjMS4zNzMtMS45NDIsMi4wNTktNC41MzQsMi4wNTktNy43NzFjMC0zLjM5MS0wLjYyOS01Ljk3MS0xLjg4NS03Ljc0M2MtMS4yNTgtMS43NzEtMy4wNjYtMi42NTctNS40My0yLjY1NyYjMTA7JiM5OyYjOTsmIzk7Yy00LjI2OCwwLTYuNjY3LDEuODg1LTcuMiw1LjY1NmgyLjM0M2wtNi4zNDIsNi4zNDNsLTYuMzQzLTYuMzQzTDIzLjI3MSwyMy45ODVMMjMuMjcxLDIzLjk4NXoiLz4mI3hhOwk8L2c+JiN4YTs8L2c+JiN4YTs8L3N2Zz4=;" parent="1" vertex="1">
          <mxGeometry x="280" y="1110" width="44" height="44" as="geometry" />
        </mxCell>
        <mxCell id="NSzI-JURLk4PuQN7T8RH-3" style="edgeStyle=orthogonalEdgeStyle;rounded=0;orthogonalLoop=1;jettySize=auto;html=1;exitX=0.5;exitY=1;exitDx=0;exitDy=0;entryX=0.5;entryY=0;entryDx=0;entryDy=0;" edge="1" parent="1" source="NSzI-JURLk4PuQN7T8RH-1" target="hj8D2mjoaMXsEgfOs6C1-1">
          <mxGeometry relative="1" as="geometry" />
        </mxCell>
        <mxCell id="NSzI-JURLk4PuQN7T8RH-1" value="&lt;font face=&quot;Noto Sans&quot; style=&quot;font-size: 16px&quot;&gt;Append \(+c\)&lt;/font&gt;" style="rounded=0;whiteSpace=wrap;html=1;fontSize=16;align=center;" vertex="1" parent="1">
          <mxGeometry x="40" y="320" width="150" height="30" as="geometry" />
        </mxCell>
        <mxCell id="NSzI-JURLk4PuQN7T8RH-4" value="$$\frac{x^3}{3}+c$$" style="text;html=1;strokeColor=none;fillColor=none;align=center;verticalAlign=middle;whiteSpace=wrap;rounded=0;fontFamily=Georgia;fontStyle=2;fontSize=16;" vertex="1" parent="1">
          <mxGeometry x="250" y="320" width="120" height="30" as="geometry" />
        </mxCell>
        <mxCell id="NSzI-JURLk4PuQN7T8RH-5" value="General form&lt;br&gt;\(\frac{dy}{dx}=ax^n \rightarrow y=\frac{ax^{n+1}}{n+1}+c\) provided \(n\ne -1\)" style="rounded=0;whiteSpace=wrap;html=1;fontFamily=Noto Sans;fontSource=https%3A%2F%2Ffonts.googleapis.com%2Fcss%3Ffamily%3DNoto%2BSans;fontSize=16;align=left;" vertex="1" parent="1">
          <mxGeometry x="414" y="60" width="386" height="60" as="geometry" />
        </mxCell>
        <mxCell id="NSzI-JURLk4PuQN7T8RH-6" value="Add 1 to the power, divide by the power, add the constant of integration (\(+c\))" style="rounded=0;whiteSpace=wrap;html=1;fontFamily=Noto Sans;fontSource=https%3A%2F%2Ffonts.googleapis.com%2Fcss%3Ffamily%3DNoto%2BSans;fontSize=16;align=left;" vertex="1" parent="1">
          <mxGeometry x="414" y="130" width="386" height="45" as="geometry" />
        </mxCell>
        <mxCell id="NSzI-JURLk4PuQN7T8RH-7" value="Add 1 to power, divide by new power\(\times\)derivative of the bracket, \(+c\)" style="rounded=0;whiteSpace=wrap;html=1;fontFamily=Noto Sans;fontSource=https%3A%2F%2Ffonts.googleapis.com%2Fcss%3Ffamily%3DNoto%2BSans;fontSize=16;align=left;" vertex="1" parent="1">
          <mxGeometry x="400" y="305" width="386" height="45" as="geometry" />
        </mxCell>
        <mxCell id="NSzI-JURLk4PuQN7T8RH-8" value="Increase power, put bracket on top of fraction" style="text;html=1;strokeColor=none;fillColor=none;align=right;verticalAlign=middle;whiteSpace=wrap;rounded=0;fontSize=16;fontFamily=Noto Sans;fontSource=https%3A%2F%2Ffonts.googleapis.com%2Fcss%3Ffamily%3DNoto%2BSans;" vertex="1" parent="1">
          <mxGeometry x="585" y="470" width="225" height="20" as="geometry" />
        </mxCell>
        <mxCell id="NSzI-JURLk4PuQN7T8RH-9" value="Derivative on bottom, multiplied by power" style="text;html=1;strokeColor=none;fillColor=none;align=right;verticalAlign=middle;whiteSpace=wrap;rounded=0;fontSize=16;fontFamily=Noto Sans;fontSource=https%3A%2F%2Ffonts.googleapis.com%2Fcss%3Ffamily%3DNoto%2BSans;" vertex="1" parent="1">
          <mxGeometry x="585" y="555" width="225" height="20" as="geometry" />
        </mxCell>
        <mxCell id="NSzI-JURLk4PuQN7T8RH-10" value="" style="shape=image;verticalLabelPosition=bottom;labelBackgroundColor=#ffffff;verticalAlign=top;aspect=fixed;imageAspect=0;image=data:image/svg+xml,PHN2ZyB4bWxucz0iaHR0cDovL3d3dy53My5vcmcvMjAwMC9zdmciIHZpZXdCb3g9IjEgMSAyOSAyOSIgd2lkdGg9IjI5IiBoZWlnaHQ9IjI5Ij48cGF0aCBkPSJNMSAxaDd2N2gtN3pNMTAgMWgxdjFoLTF6TTEzIDFoNHYyaC0xdi0xaC0xdjFoLTJ6TTE4IDFoM3YyaC0xdi0xaC0xdjFoLTF6TTIzIDFoN3Y3aC03ek0yIDJ2NWg1di01ek05IDJoMXYxaC0xek0xMSAyaDF2MWgtMXpNMjQgMnY1aDV2LTV6TTMgM2gzdjNoLTN6TTEwIDNoMXYyaDF2MWgtM3YtMWgxek0xMiAzaDF2MWgxdjFoMXYtMWgzdjFoLTF2MWgxdjJoLTF2LTFoLTF2MWgxdjFoLTJ2MWgtMnYtMWgxdi0xaDF2LTJoLTF2MmgtMXYtM2gtMXpNMTkgM2gxdjFoMnYxaC0xdjFoMXYyaC0xdi0xaC0xdi0yaC0xek0yNSAzaDN2M2gtM3pNOSA3aDF2MWgtMXpNMTEgN2gxdjFoMXYxaC0xdjFoLTJ2LTFoMXpNMTkgN2gxdjFoMXYxaC0xdjFoLTJ2MWgxdjFoM3YxaDJ2MWgxdjFoMXYtMmgxdjVoMXYxaC0ydi0zaC0ydi0xaC0xdjFoLTF2LTFoLTF2LTFoLTJ2MWgxdjJoLTF2MWgtMXYxaC0xdi0zaDF2LTFoLTF2LTFoMXYtMmgtMXYtM2gxdi0xaDF6TTEgOWgxdjFoLTF6TTMgOWgxdjFoLTF6TTUgOWgxdjFoMXYxaC0zdi0xaDF6TTcgOWgxdjFoLTF6TTIxIDloMXYxaDJ2MWgtM3pNMjUgOWgxdjFoLTF6TTI4IDloMXYxaC0xek04IDEwaDF2MWgzdjNoLTF2LTFoLTF2LTFoLTF2MWgxdjFoLTF2MWgtMXYtMWgtMXYxaDF2MWgtMnYxaC0xdjFoLTF2LTFoLTJ2LTFoMXYtMWgxdi0xaC0zdi0yaDF2MWgxdi0yaDF2MWgxdjNoMXYtM2gxdjFoMXYtMWgtMXYtMWgxek0yNiAxMGgxdjFoLTF6TTI5IDEwaDF2MmgtMXYxaDF2M2gtMXYxaDF2M2gtMXYxaC0xdi0yaDF2LTFoLTF2LTNoMXYtMWgtMXYtMmgtMXYtMWgyek0xNCAxMWgxdjJoLTF2MmgxdjFoLTF2MWgtMnYtM2gxdi0yaDF6TTI1IDEyaDF2MWgtMXpNMTUgMTNoMXYxaC0xek0xMCAxNGgxdjJoLTJ2LTFoMXpNMSAxNWgxdjFoLTF6TTggMTZoMXYxaDF2MWgxdjJoLTR2LTFoMnYtMWgtMnYtMWgxek0yMSAxNmgxdjFoMXYtMWgxdjFoMXYxaC0xdjJoLTF2MWgzdjJoMXYyaC0xdjJoMXYxaC0zdi0yaC0xdjFoLTF2LTFoLTF2LTJoLTF2LTJoLTJ2MmgydjFoLTF2MWgtMXYtMWgtMnYtMWgxdi0zaC0xdjJoLTF2LTJoLTF2LTFoMXYtMWgxdjFoM3YxaDF2LTFoMXYxaDF2LTNoLTJ2LTFoMXpNMTEgMTdoMXYxaC0xek02IDE4aDF2MWgtMXpNMTIgMThoM3YxaC0ydjFoLTF6TTEgMTloMXYxaC0xek0zIDE5aDF2MWgtMXpNNSAxOWgxdjJoLTF6TTE5IDE5aDF2MWgtMXpNMjUgMTloMXYxaC0xek0yIDIwaDF2MWgtMXpNMTEgMjBoMXYxaC0xek0yNiAyMGgxdjFoLTF6TTEgMjFoMXYxaC0xek0zIDIxaDJ2MWgtMnpNNyAyMWgydjFoLTJ6TTEwIDIxaDF2MWgxdjFoLTF2MWgxdjJoMXYxaC0xdjFoMXYtMWgxdjFoMXYtMWgxdjJoLTF2MWgtMXYtMWgtMXYxaC0xdi0xaC0xdi0yaC0xdi0xaC0xdi0xaDF2LTJoLTF2LTFoMXpNMTIgMjFoMnYyaDF2MWgtMnYtMmgtMXpNMjIgMjJ2M2gzdi0zek0yNyAyMmgzdjZoLTF2LTFoLTJ2LTFoMXYtMWgxdi0xaC0xdi0xaC0xek0xIDIzaDd2N2gtN3pNMjMgMjNoMXYxaC0xek0yIDI0djVoNXYtNXpNMyAyNWgzdjNoLTN6TTE3IDI2aDF2Mmgxdi0xaDF2LTFoMXYyaDF2MmgtMnYtMWgtMXYxaC0zdi0xaDF6TTkgMjdoMXYxaC0xek0yMyAyOGgxdjFoLTF6TTI4IDI4aDF2MWgxdjFoLTJ6TTkgMjloMnYxaC0yek0yNCAyOWgydjFoLTJ6Ii8+PC9zdmc+;" vertex="1" parent="1">
          <mxGeometry x="80" y="1068.5" width="83.5" height="83.5" as="geometry" />
        </mxCell>
        <mxCell id="NSzI-JURLk4PuQN7T8RH-12" value="\(\int{\sin x}dx \rightarrow -\cos x+c\)&lt;br&gt;\(\int{\cos x}dx \rightarrow \sin x+c\)&lt;br&gt;&lt;font style=&quot;font-size: 11px&quot;&gt;(only works when \(x\) is in radians)&lt;br&gt;&lt;/font&gt;\(\int{\cos (ax+b)}dx =\frac{1}{a}\sin (ax+b)+c\)&lt;br&gt;\(\int{\sin (ax+b)}dx =-\frac{1}{a}\cos (ax+b)+c\)" style="text;html=1;strokeColor=none;fillColor=none;align=left;verticalAlign=middle;whiteSpace=wrap;rounded=0;fontSize=16;fontFamily=Noto Sans;fontSource=https%3A%2F%2Ffonts.googleapis.com%2Fcss%3Ffamily%3DNoto%2BSans;" vertex="1" parent="1">
          <mxGeometry x="22" y="490" width="348" height="140" as="geometry" />
        </mxCell>
        <mxCell id="NSzI-JURLk4PuQN7T8RH-13" value="\(\int{\sin ^2 x}dx\)&lt;br&gt;\(\sin ^2 x=\frac{1}{2}(1-\cos 2x)\) (double angle formulae)&lt;br&gt;\(\therefore \int{\frac{1}{2}(1-\cos 2x)}dx\)&lt;br&gt;\(\int{(\frac{1}{2}-\frac{1}{2}\cos 2x)}dx\)&lt;br&gt;\(\frac{1}{2}x-\frac{1}{2}\times\frac{1}{2}\sin 2x+c\)&lt;br&gt;\(\frac{1}{2}x-\frac{1}{4}\sin 2x+c\)" style="text;html=1;strokeColor=none;fillColor=none;align=left;verticalAlign=middle;whiteSpace=wrap;rounded=0;fontSize=16;fontFamily=Noto Sans;fontSource=https%3A%2F%2Ffonts.googleapis.com%2Fcss%3Ffamily%3DNoto%2BSans;" vertex="1" parent="1">
          <mxGeometry x="22" y="670" width="360" height="150" as="geometry" />
        </mxCell>
        <mxCell id="NSzI-JURLk4PuQN7T8RH-15" value="&lt;font style=&quot;font-size: 14px;&quot;&gt;Find the equation of \(\frac{dy}{dx}=4x^3 +6x^2\) which passes through \((1,3)\)&lt;/font&gt;" style="rounded=0;whiteSpace=wrap;html=1;fontFamily=Noto Sans;fontSource=https%3A%2F%2Ffonts.googleapis.com%2Fcss%3Ffamily%3DNoto%2BSans;fontSize=14;align=left;" vertex="1" parent="1">
          <mxGeometry x="429.99999999999994" y="720" width="260.92" height="60" as="geometry" />
        </mxCell>
        <mxCell id="NSzI-JURLk4PuQN7T8RH-22" style="edgeStyle=orthogonalEdgeStyle;rounded=0;orthogonalLoop=1;jettySize=auto;html=1;exitX=0.5;exitY=1;exitDx=0;exitDy=0;entryX=0.5;entryY=0;entryDx=0;entryDy=0;fontFamily=Noto Sans;fontSource=https%3A%2F%2Ffonts.googleapis.com%2Fcss%3Ffamily%3DNoto%2BSans;fontSize=14;" edge="1" parent="1" source="NSzI-JURLk4PuQN7T8RH-16" target="NSzI-JURLk4PuQN7T8RH-17">
          <mxGeometry relative="1" as="geometry" />
        </mxCell>
        <mxCell id="NSzI-JURLk4PuQN7T8RH-16" value="$$\int{4x^3 +6x^2}dx$$" style="rounded=0;whiteSpace=wrap;html=1;fontFamily=Noto Sans;fontSource=https%3A%2F%2Ffonts.googleapis.com%2Fcss%3Ffamily%3DNoto%2BSans;fontSize=16;fillColor=#ffffff;align=center;" vertex="1" parent="1">
          <mxGeometry x="430" y="790" width="166" height="60" as="geometry" />
        </mxCell>
        <mxCell id="NSzI-JURLk4PuQN7T8RH-23" style="edgeStyle=orthogonalEdgeStyle;rounded=0;orthogonalLoop=1;jettySize=auto;html=1;exitX=0.5;exitY=1;exitDx=0;exitDy=0;entryX=0.5;entryY=0;entryDx=0;entryDy=0;fontFamily=Noto Sans;fontSource=https%3A%2F%2Ffonts.googleapis.com%2Fcss%3Ffamily%3DNoto%2BSans;fontSize=14;" edge="1" parent="1" source="NSzI-JURLk4PuQN7T8RH-17" target="NSzI-JURLk4PuQN7T8RH-18">
          <mxGeometry relative="1" as="geometry" />
        </mxCell>
        <mxCell id="NSzI-JURLk4PuQN7T8RH-17" value="$$y=x^4 +2x^3 +c$$" style="rounded=0;whiteSpace=wrap;html=1;fontFamily=Noto Sans;fontSource=https%3A%2F%2Ffonts.googleapis.com%2Fcss%3Ffamily%3DNoto%2BSans;fontSize=16;fillColor=#ffffff;align=center;" vertex="1" parent="1">
          <mxGeometry x="430" y="870" width="166" height="40" as="geometry" />
        </mxCell>
        <mxCell id="NSzI-JURLk4PuQN7T8RH-24" style="edgeStyle=orthogonalEdgeStyle;rounded=0;orthogonalLoop=1;jettySize=auto;html=1;exitX=0.5;exitY=1;exitDx=0;exitDy=0;entryX=0.5;entryY=0;entryDx=0;entryDy=0;fontFamily=Noto Sans;fontSource=https%3A%2F%2Ffonts.googleapis.com%2Fcss%3Ffamily%3DNoto%2BSans;fontSize=14;" edge="1" parent="1" source="NSzI-JURLk4PuQN7T8RH-18" target="NSzI-JURLk4PuQN7T8RH-19">
          <mxGeometry relative="1" as="geometry" />
        </mxCell>
        <mxCell id="NSzI-JURLk4PuQN7T8RH-18" value="$$3=1^4 +2(1)^3 +c$$" style="rounded=0;whiteSpace=wrap;html=1;fontFamily=Noto Sans;fontSource=https%3A%2F%2Ffonts.googleapis.com%2Fcss%3Ffamily%3DNoto%2BSans;fontSize=16;fillColor=#ffffff;align=center;" vertex="1" parent="1">
          <mxGeometry x="430" y="930" width="166" height="40" as="geometry" />
        </mxCell>
        <mxCell id="NSzI-JURLk4PuQN7T8RH-27" style="edgeStyle=orthogonalEdgeStyle;rounded=0;orthogonalLoop=1;jettySize=auto;html=1;exitX=0.5;exitY=1;exitDx=0;exitDy=0;entryX=0.5;entryY=0;entryDx=0;entryDy=0;fontFamily=Noto Sans;fontSource=https%3A%2F%2Ffonts.googleapis.com%2Fcss%3Ffamily%3DNoto%2BSans;fontSize=14;" edge="1" parent="1" source="NSzI-JURLk4PuQN7T8RH-19" target="NSzI-JURLk4PuQN7T8RH-20">
          <mxGeometry relative="1" as="geometry" />
        </mxCell>
        <mxCell id="NSzI-JURLk4PuQN7T8RH-19" value="$$3=3 +c$$" style="rounded=0;whiteSpace=wrap;html=1;fontFamily=Noto Sans;fontSource=https%3A%2F%2Ffonts.googleapis.com%2Fcss%3Ffamily%3DNoto%2BSans;fontSize=16;fillColor=#ffffff;align=center;" vertex="1" parent="1">
          <mxGeometry x="430" y="990" width="166" height="40" as="geometry" />
        </mxCell>
        <mxCell id="NSzI-JURLk4PuQN7T8RH-20" value="$$\therefore c=0$$" style="rounded=0;whiteSpace=wrap;html=1;fontFamily=Noto Sans;fontSource=https%3A%2F%2Ffonts.googleapis.com%2Fcss%3Ffamily%3DNoto%2BSans;fontSize=16;fillColor=#ffffff;align=center;" vertex="1" parent="1">
          <mxGeometry x="430" y="1050" width="166" height="40" as="geometry" />
        </mxCell>
        <mxCell id="NSzI-JURLk4PuQN7T8RH-21" value="Integrate the derivative, to find the equation of the line" style="text;html=1;strokeColor=none;fillColor=none;align=right;verticalAlign=middle;whiteSpace=wrap;rounded=0;fontSize=16;fontFamily=Noto Sans;fontSource=https%3A%2F%2Ffonts.googleapis.com%2Fcss%3Ffamily%3DNoto%2BSans;" vertex="1" parent="1">
          <mxGeometry x="585" y="880" width="225" height="20" as="geometry" />
        </mxCell>
        <mxCell id="NSzI-JURLk4PuQN7T8RH-28" value="Substitute the values from the question" style="text;html=1;strokeColor=none;fillColor=none;align=right;verticalAlign=middle;whiteSpace=wrap;rounded=0;fontSize=16;fontFamily=Noto Sans;fontSource=https%3A%2F%2Ffonts.googleapis.com%2Fcss%3Ffamily%3DNoto%2BSans;" vertex="1" parent="1">
          <mxGeometry x="585" y="940" width="225" height="20" as="geometry" />
        </mxCell>
        <mxCell id="NSzI-JURLk4PuQN7T8RH-29" value="Simplify" style="text;html=1;strokeColor=none;fillColor=none;align=right;verticalAlign=middle;whiteSpace=wrap;rounded=0;fontSize=16;fontFamily=Noto Sans;fontSource=https%3A%2F%2Ffonts.googleapis.com%2Fcss%3Ffamily%3DNoto%2BSans;" vertex="1" parent="1">
          <mxGeometry x="585" y="1000" width="225" height="20" as="geometry" />
        </mxCell>
        <mxCell id="NSzI-JURLk4PuQN7T8RH-30" value="Rearrange to find \(c\)" style="text;html=1;strokeColor=none;fillColor=none;align=right;verticalAlign=middle;whiteSpace=wrap;rounded=0;fontSize=16;fontFamily=Noto Sans;fontSource=https%3A%2F%2Ffonts.googleapis.com%2Fcss%3Ffamily%3DNoto%2BSans;" vertex="1" parent="1">
          <mxGeometry x="585" y="1060" width="225" height="20" as="geometry" />
        </mxCell>
        <mxCell id="NSzI-JURLk4PuQN7T8RH-32" value="" style="endArrow=none;html=1;fontFamily=Noto Sans;fontSource=https%3A%2F%2Ffonts.googleapis.com%2Fcss%3Ffamily%3DNoto%2BSans;fontSize=28;strokeWidth=4;" edge="1" parent="1">
          <mxGeometry width="50" height="50" relative="1" as="geometry">
            <mxPoint x="9" y="850" as="sourcePoint" />
            <mxPoint x="409" y="850" as="targetPoint" />
          </mxGeometry>
        </mxCell>
        <mxCell id="NSzI-JURLk4PuQN7T8RH-33" value="" style="endArrow=none;html=1;fontFamily=Noto Sans;fontSource=https%3A%2F%2Ffonts.googleapis.com%2Fcss%3Ffamily%3DNoto%2BSans;fontSize=16;strokeWidth=2;" edge="1" parent="1">
          <mxGeometry width="50" height="50" relative="1" as="geometry">
            <mxPoint x="10" y="1050" as="sourcePoint" />
            <mxPoint x="10" y="850" as="targetPoint" />
          </mxGeometry>
        </mxCell>
        <mxCell id="NSzI-JURLk4PuQN7T8RH-35" value="Definite Integrals" style="text;html=1;strokeColor=none;fillColor=none;align=left;verticalAlign=middle;whiteSpace=wrap;rounded=0;fontFamily=Noto Sans;fontSource=https%3A%2F%2Ffonts.googleapis.com%2Fcss%3Ffamily%3DNoto%2BSans;fontSize=28;" vertex="1" parent="1">
          <mxGeometry x="10" y="860" width="290" height="20" as="geometry" />
        </mxCell>
        <mxCell id="NSzI-JURLk4PuQN7T8RH-36" value="Integrals that have limits, and can be evaluated to give a definite answer" style="text;html=1;strokeColor=none;fillColor=none;align=left;verticalAlign=middle;whiteSpace=wrap;rounded=0;fontFamily=Noto Sans;fontSource=https%3A%2F%2Ffonts.googleapis.com%2Fcss%3Ffamily%3DNoto%2BSans;fontSize=16;" vertex="1" parent="1">
          <mxGeometry x="20" y="880" width="340" height="50" as="geometry" />
        </mxCell>
        <mxCell id="NSzI-JURLk4PuQN7T8RH-37" value="Allow the area under a curve to be found" style="text;html=1;strokeColor=none;fillColor=none;align=left;verticalAlign=middle;whiteSpace=wrap;rounded=0;fontFamily=Noto Sans;fontSource=https%3A%2F%2Ffonts.googleapis.com%2Fcss%3Ffamily%3DNoto%2BSans;fontSize=16;" vertex="1" parent="1">
          <mxGeometry x="20" y="925" width="340" height="25" as="geometry" />
        </mxCell>
        <mxCell id="NSzI-JURLk4PuQN7T8RH-38" value="&lt;span style=&quot;color: rgb(93 , 104 , 121) ; background-color: rgb(255 , 255 , 255) ; font-size: 23px&quot;&gt;\(\int_{1}^{2} x^4 dx \rightarrow [\frac{x^5}{5}]_{1}^{2}\)&lt;/span&gt;" style="text;html=1;strokeColor=none;fillColor=none;align=left;verticalAlign=middle;whiteSpace=wrap;rounded=0;fontFamily=Georgia;fontSize=23;" vertex="1" parent="1">
          <mxGeometry x="20" y="960" width="180" height="25" as="geometry" />
        </mxCell>
        <mxCell id="NSzI-JURLk4PuQN7T8RH-39" value="&lt;span style=&quot;color: rgb(93 , 104 , 121) ; background-color: rgb(255 , 255 , 255) ; font-size: 23px&quot;&gt;\((\frac{2^5}{5})-(\frac{1^5}{5})=\frac{31}{5}\)&lt;/span&gt;" style="text;html=1;strokeColor=none;fillColor=none;align=left;verticalAlign=middle;whiteSpace=wrap;rounded=0;fontFamily=Georgia;fontSize=23;" vertex="1" parent="1">
          <mxGeometry x="20" y="1010" width="190" height="25" as="geometry" />
        </mxCell>
        <mxCell id="NSzI-JURLk4PuQN7T8RH-40" value="Integrate expression" style="text;html=1;strokeColor=none;fillColor=none;align=right;verticalAlign=middle;whiteSpace=wrap;rounded=0;fontSize=16;fontFamily=Noto Sans;fontSource=https%3A%2F%2Ffonts.googleapis.com%2Fcss%3Ffamily%3DNoto%2BSans;" vertex="1" parent="1">
          <mxGeometry x="220" y="962.5" width="195" height="20" as="geometry" />
        </mxCell>
        <mxCell id="NSzI-JURLk4PuQN7T8RH-41" value="Substitute limits, subtracts" style="text;html=1;strokeColor=none;fillColor=none;align=right;verticalAlign=middle;whiteSpace=wrap;rounded=0;fontSize=16;fontFamily=Noto Sans;fontSource=https%3A%2F%2Ffonts.googleapis.com%2Fcss%3Ffamily%3DNoto%2BSans;" vertex="1" parent="1">
          <mxGeometry x="230" y="1010" width="184" height="20" as="geometry" />
        </mxCell>
        <mxCell id="NSzI-JURLk4PuQN7T8RH-42" value="This work is shared under a Creative Commons Attribution-ShareAlike license.&lt;br&gt;More details:&amp;nbsp;https://creativecommons.org/licenses/by-sa/4.0/" style="text;html=1;strokeColor=none;fillColor=none;align=left;verticalAlign=middle;whiteSpace=wrap;rounded=0;" vertex="1" parent="1">
          <mxGeometry x="330" y="1120" width="450" height="34" as="geometry" />
        </mxCell>
      </root>
    </mxGraphModel>
  </diagram>
</mxfile>
